<svg width="32" height="32" viewBox="0 0 32 32" fill="none" xmlns="http://www.w3.org/2000/svg">
  <path d="M6 14h16v8c0 3.3-2.7 6-6 6h-4c-3.3 0-6-2.7-6-6v-8z" fill="#6B9E6B"/>
  <path d="M22 16h2c2.2 0 4 1.8 4 4s-1.8 4-4 4h-2" stroke="#6B9E6B" stroke-width="2"/>
  <line x1="6" y1="14" x2="22" y2="14" stroke="#5A8B5A" stroke-width="2"/>
  <path d="M11 9c0-2 1-3 1-3s1 1 1 3" stroke="#9EBF9E" stroke-width="1.5" stroke-linecap="round"/>
  <path d="M15 8c0-2 1-3 1-3s1 1 1 3" stroke="#9EBF9E" stroke-width="1.5" stroke-linecap="round"/>
</svg>
